<svg width="29" height="31" viewBox="0 0 29 31" fill="none" xmlns="http://www.w3.org/2000/svg">
<path d="M21.2534 22.2812H6.34375C5.86304 22.2812 5.40203 22.0771 5.06212 21.7138C4.72221 21.3504 4.53125 20.8576 4.53125 20.3438V7.75C4.53125 7.23614 4.72221 6.74333 5.06212 6.37998C5.40203 6.01663 5.86304 5.8125 6.34375 5.8125H22.6562C23.137 5.8125 23.598 6.01663 23.9379 6.37998C24.2778 6.74333 24.4688 7.23614 24.4688 7.75V25.0325L21.2534 22.2812ZM20.6172 24.2188L24.8095 27.8031C24.9428 27.9169 25.1033 27.9881 25.2728 28.0087C25.4422 28.0293 25.6136 27.9983 25.7674 27.9194C25.9211 27.8404 26.0508 27.7168 26.1418 27.5625C26.2327 27.4083 26.281 27.2298 26.2812 27.0475V7.75C26.2812 6.72229 25.8993 5.73666 25.2195 5.00996C24.5397 4.28326 23.6177 3.875 22.6562 3.875H6.34375C5.38234 3.875 4.46031 4.28326 3.78049 5.00996C3.10067 5.73666 2.71875 6.72229 2.71875 7.75V20.3438C2.71875 21.3715 3.10067 22.3571 3.78049 23.0838C4.46031 23.8105 5.38234 24.2188 6.34375 24.2188H20.6172Z" fill="white"/>
<path d="M14.5002 15.1127C14.8848 15.1127 15.2536 14.9494 15.5255 14.6587C15.7974 14.368 15.9502 13.9738 15.9502 13.5627C15.9502 13.1516 15.7974 12.7574 15.5255 12.4667C15.2536 12.176 14.8848 12.0127 14.5002 12.0127C14.1156 12.0127 13.7468 12.176 13.4749 12.4667C13.203 12.7574 13.0502 13.1516 13.0502 13.5627C13.0502 13.9738 13.203 14.368 13.4749 14.6587C13.7468 14.9494 14.1156 15.1127 14.5002 15.1127ZM9.0627 15.1127C9.44726 15.1127 9.81607 14.9494 10.088 14.6587C10.3599 14.368 10.5127 13.9738 10.5127 13.5627C10.5127 13.1516 10.3599 12.7574 10.088 12.4667C9.81607 12.176 9.44726 12.0127 9.0627 12.0127C8.67813 12.0127 8.30932 12.176 8.03739 12.4667C7.76546 12.7574 7.6127 13.1516 7.6127 13.5627C7.6127 13.9738 7.76546 14.368 8.03739 14.6587C8.30932 14.9494 8.67813 15.1127 9.0627 15.1127ZM19.9377 15.1127C20.3223 15.1127 20.6911 14.9494 20.963 14.6587C21.2349 14.368 21.3877 13.9738 21.3877 13.5627C21.3877 13.1516 21.2349 12.7574 20.963 12.4667C20.6911 12.176 20.3223 12.0127 19.9377 12.0127C19.5531 12.0127 19.1843 12.176 18.9124 12.4667C18.6405 12.7574 18.4877 13.1516 18.4877 13.5627C18.4877 13.9738 18.6405 14.368 18.9124 14.6587C19.1843 14.9494 19.5531 15.1127 19.9377 15.1127Z" fill="white"/>
</svg>
