<svg width="8" height="8" viewBox="0 0 8 8" fill="none" xmlns="http://www.w3.org/2000/svg">
<path d="M4 0.5C5.933 0.5 7.5 2.067 7.5 4C7.5 5.933 5.933 7.5 4 7.5C2.067 7.5 0.5 5.933 0.5 4C0.5 2.067 2.067 0.5 4 0.5ZM5.86426 2.87793C5.76661 2.78054 5.60829 2.78038 5.51074 2.87793L3.56641 4.82227L2.68262 3.93848C2.585 3.84099 2.4267 3.84095 2.3291 3.93848C2.23151 4.03607 2.23159 4.19435 2.3291 4.29199L3.38965 5.35254C3.48728 5.45017 3.64553 5.45017 3.74316 5.35254L5.86426 3.23145C5.96189 3.13381 5.96189 2.97556 5.86426 2.87793Z" fill="white"/>
</svg>
